<mxfile host="app.diagrams.net" modified="2024-04-17T09:20:06.167Z" agent="Mozilla/5.0 (Windows NT 10.0; Win64; x64) AppleWebKit/537.36 (KHTML, like Gecko) Chrome/123.0.0.0 Safari/537.36" etag="RYYIJam1DsWsaLCbHIA7" version="24.2.5" type="device">
  <diagram name="Page-1" id="jD3X0Wwvnjhx5vSU4qVI">
    <mxGraphModel dx="1185" dy="673" grid="1" gridSize="10" guides="1" tooltips="1" connect="1" arrows="1" fold="1" page="1" pageScale="1" pageWidth="850" pageHeight="1100" math="0" shadow="0">
      <root>
        <mxCell id="0" />
        <mxCell id="1" parent="0" />
        <mxCell id="jSDXQNbd_DLdKLQMRp0E-1" value="" style="whiteSpace=wrap;html=1;aspect=fixed;" vertex="1" parent="1">
          <mxGeometry x="32.5" y="370" width="120" height="120" as="geometry" />
        </mxCell>
        <mxCell id="jSDXQNbd_DLdKLQMRp0E-2" value="OpenAI Endpoints" style="text;html=1;align=center;verticalAlign=middle;whiteSpace=wrap;rounded=0;" vertex="1" parent="1">
          <mxGeometry x="62.5" y="415" width="60" height="30" as="geometry" />
        </mxCell>
        <mxCell id="jSDXQNbd_DLdKLQMRp0E-3" value="" style="whiteSpace=wrap;html=1;aspect=fixed;" vertex="1" parent="1">
          <mxGeometry x="770" y="370" width="120" height="120" as="geometry" />
        </mxCell>
        <mxCell id="jSDXQNbd_DLdKLQMRp0E-5" value="Client (Android or Web App)" style="text;html=1;align=center;verticalAlign=middle;whiteSpace=wrap;rounded=0;" vertex="1" parent="1">
          <mxGeometry x="780" y="410" width="100" height="30" as="geometry" />
        </mxCell>
        <mxCell id="jSDXQNbd_DLdKLQMRp0E-6" value="" style="whiteSpace=wrap;html=1;aspect=fixed;" vertex="1" parent="1">
          <mxGeometry x="270" y="220" width="377.5" height="377.5" as="geometry" />
        </mxCell>
        <mxCell id="jSDXQNbd_DLdKLQMRp0E-7" value="" style="whiteSpace=wrap;html=1;aspect=fixed;" vertex="1" parent="1">
          <mxGeometry x="380.01" y="230" width="125" height="125" as="geometry" />
        </mxCell>
        <mxCell id="jSDXQNbd_DLdKLQMRp0E-8" value="Open-API-dotnet library" style="text;html=1;align=center;verticalAlign=middle;whiteSpace=wrap;rounded=0;" vertex="1" parent="1">
          <mxGeometry x="398.76" y="275" width="87.5" height="30" as="geometry" />
        </mxCell>
        <mxCell id="jSDXQNbd_DLdKLQMRp0E-9" value="" style="whiteSpace=wrap;html=1;aspect=fixed;" vertex="1" parent="1">
          <mxGeometry x="380" y="460" width="125" height="125" as="geometry" />
        </mxCell>
        <mxCell id="jSDXQNbd_DLdKLQMRp0E-10" value="Fitness Tracker API REST" style="text;html=1;align=center;verticalAlign=middle;whiteSpace=wrap;rounded=0;" vertex="1" parent="1">
          <mxGeometry x="398.75" y="507.5" width="87.5" height="30" as="geometry" />
        </mxCell>
        <mxCell id="jSDXQNbd_DLdKLQMRp0E-14" value="" style="html=1;shadow=0;dashed=0;align=center;verticalAlign=middle;shape=mxgraph.arrows2.twoWayArrow;dy=0.6;dx=35;rotation=90;" vertex="1" parent="1">
          <mxGeometry x="391.41" y="395.16" width="102.2" height="30" as="geometry" />
        </mxCell>
        <mxCell id="jSDXQNbd_DLdKLQMRp0E-15" value="" style="html=1;shadow=0;dashed=0;align=center;verticalAlign=middle;shape=mxgraph.arrows2.twoWayArrow;dy=0.6;dx=35;rotation=-180;" vertex="1" parent="1">
          <mxGeometry x="647.5" y="410" width="117.5" height="30" as="geometry" />
        </mxCell>
        <mxCell id="jSDXQNbd_DLdKLQMRp0E-22" value="" style="html=1;shadow=0;dashed=0;align=center;verticalAlign=middle;shape=mxgraph.arrows2.twoWayArrow;dy=0.6;dx=35;rotation=-180;" vertex="1" parent="1">
          <mxGeometry x="152.5" y="410" width="117.5" height="30" as="geometry" />
        </mxCell>
      </root>
    </mxGraphModel>
  </diagram>
</mxfile>
